<?xml version="1.0" encoding="utf-8"?>
<!-- Generator: Adobe Illustrator 16.0.0, SVG Export Plug-In . SVG Version: 6.00 Build 0)  -->
<!DOCTYPE svg PUBLIC "-//W3C//DTD SVG 1.1//EN" "http://www.w3.org/Graphics/SVG/1.1/DTD/svg11.dtd">
<svg version="1.1" id="Capa_1" xmlns="http://www.w3.org/2000/svg" xmlns:xlink="http://www.w3.org/1999/xlink" x="0px" y="0px"
	 width="24px" height="24px" viewBox="0 0 24 24" enable-background="new 0 0 24 24" xml:space="preserve">
<path fill="none" d="M0,0h24v24H0V0z"/>
<path d="M13.702,12L13.702,12L13.702,12L6.977,4.993c-0.168-0.171-0.165-0.455,0.01-0.634l1.201-1.232
	c0.174-0.175,0.455-0.179,0.625-0.008l8.213,8.556c0.087,0.088,0.128,0.21,0.121,0.326c0.001,0.123-0.039,0.237-0.121,0.325
	l-8.213,8.556c-0.17,0.173-0.451,0.167-0.625-0.009l-1.201-1.231c-0.175-0.178-0.178-0.462-0.01-0.637L13.702,12z"/>
</svg>
