<?xml version="1.0" encoding="utf-8"?>
<!-- Generator: Adobe Illustrator 16.0.0, SVG Export Plug-In . SVG Version: 6.00 Build 0)  -->
<!DOCTYPE svg PUBLIC "-//W3C//DTD SVG 1.1//EN" "http://www.w3.org/Graphics/SVG/1.1/DTD/svg11.dtd">
<svg version="1.1" id="Capa_1" xmlns="http://www.w3.org/2000/svg" xmlns:xlink="http://www.w3.org/1999/xlink" x="0px" y="0px"
	 width="24px" height="24px" viewBox="0 0 24 24" enable-background="new 0 0 24 24" xml:space="preserve">
<path fill="none" d="M0,0h24v24H0V0z"/>
<g>
	<path d="M20.748,19.058l-1.375-3.761c0.428-1.013,0.665-2.127,0.665-3.298c0-4.684-3.796-8.48-8.481-8.48
		c-4.684,0-8.481,3.796-8.481,8.48c0,4.686,3.798,8.483,8.481,8.483c2.01,0,3.854-0.702,5.306-1.869l3.103,1.214
		C20.648,20.095,21.002,19.749,20.748,19.058z M7.338,13.086c-0.6,0-1.086-0.486-1.086-1.087c0-0.599,0.486-1.086,1.086-1.086
		c0.6,0,1.086,0.487,1.086,1.086C8.424,12.6,7.938,13.086,7.338,13.086z M11.349,13.086c-0.599,0-1.087-0.486-1.087-1.087
		c0-0.599,0.488-1.086,1.087-1.086c0.6,0,1.086,0.487,1.086,1.086C12.435,12.6,11.948,13.086,11.349,13.086z M15.358,13.086
		c-0.599,0-1.085-0.486-1.085-1.087c0-0.599,0.486-1.086,1.085-1.086c0.601,0,1.087,0.487,1.087,1.086
		C16.445,12.6,15.959,13.086,15.358,13.086z"/>
</g>
</svg>
