<?xml version="1.0" encoding="utf-8"?>
<!-- Generator: Adobe Illustrator 16.0.0, SVG Export Plug-In . SVG Version: 6.00 Build 0)  -->
<!DOCTYPE svg PUBLIC "-//W3C//DTD SVG 1.1//EN" "http://www.w3.org/Graphics/SVG/1.1/DTD/svg11.dtd">
<svg version="1.1" id="Capa_1" xmlns="http://www.w3.org/2000/svg" xmlns:xlink="http://www.w3.org/1999/xlink" x="0px" y="0px"
	 width="24px" height="24px" viewBox="0 0 24 24" enable-background="new 0 0 24 24" xml:space="preserve">
<path fill="none" d="M0,0h24v24H0V0z"/>
<g id="Layer_x0020_1_18_">
	<path d="M10.896,16.669c-0.008-0.291-0.014-0.51-0.014-0.656c0-0.857,0.119-1.6,0.367-2.223c0.178-0.469,0.465-0.941,0.863-1.422
		c0.292-0.346,0.814-0.854,1.571-1.521c0.757-0.671,1.244-1.202,1.473-1.601c0.229-0.395,0.342-0.828,0.342-1.297
		c0-0.85-0.331-1.598-0.996-2.244c-0.66-0.644-1.48-0.967-2.44-0.967c-0.934,0-1.711,0.295-2.33,0.877
		C9.104,6.2,8.7,7.112,8.503,8.353l-2.247-0.27c0.199-1.66,0.802-2.932,1.806-3.815c0.998-0.884,2.321-1.321,3.963-1.321
		c1.739,0,3.129,0.471,4.164,1.422c1.036,0.943,1.556,2.089,1.556,3.437c0,0.774-0.184,1.493-0.544,2.147
		c-0.365,0.656-1.074,1.457-2.137,2.393c-0.713,0.635-1.178,1.098-1.399,1.398c-0.218,0.301-0.382,0.645-0.486,1.031
		c-0.104,0.389-0.161,1.02-0.18,1.895H10.896L10.896,16.669z M10.765,21.054v-2.49h2.484v2.49H10.765z"/>
</g>
</svg>
