<?xml version="1.0" encoding="utf-8"?>
<!-- Generator: Adobe Illustrator 16.0.0, SVG Export Plug-In . SVG Version: 6.00 Build 0)  -->
<!DOCTYPE svg PUBLIC "-//W3C//DTD SVG 1.1//EN" "http://www.w3.org/Graphics/SVG/1.1/DTD/svg11.dtd">
<svg version="1.1" id="Capa_1" xmlns="http://www.w3.org/2000/svg" xmlns:xlink="http://www.w3.org/1999/xlink" x="0px" y="0px"
	 width="24px" height="24px" viewBox="0 0 24 24" enable-background="new 0 0 24 24" xml:space="preserve">
<g>
	<g>
		<g>
			<path d="M2.683,12.307c0-0.396,0.298-0.606,0.675-0.606c0.121,0,0.252,0.026,0.345,0.069l-0.021,0.449
				c-0.075-0.043-0.164-0.068-0.235-0.068c-0.118,0-0.203,0.059-0.203,0.193v0.111h0.399v0.373H3.244v1.332H2.683v-1.332H2.443
				v-0.373h0.239V12.307z M3.831,11.885c0-0.175,0.125-0.299,0.299-0.299c0.176,0,0.301,0.124,0.301,0.299
				c0,0.176-0.125,0.301-0.301,0.301C3.955,12.186,3.831,12.061,3.831,11.885z M4.411,12.393v1.768H3.847v-1.768H4.411z"/>
			<path d="M6.667,13.045v1.115H6.102v-0.957c0-0.208-0.121-0.335-0.311-0.335c-0.207,0-0.338,0.147-0.362,0.357v0.935H4.863v-1.768
				h0.566v0.288c0.125-0.206,0.329-0.312,0.59-0.314C6.41,12.366,6.667,12.632,6.667,13.045z"/>
			<path d="M8.633,13.006v1.154H8.079v-0.203c-0.115,0.15-0.302,0.229-0.541,0.229c-0.377,0-0.607-0.229-0.607-0.554
				c0-0.335,0.24-0.532,0.679-0.534h0.466v-0.026c0-0.174-0.115-0.278-0.345-0.278c-0.147,0-0.341,0.053-0.527,0.146l-0.161-0.373
				c0.275-0.128,0.524-0.2,0.82-0.2C8.348,12.366,8.63,12.605,8.633,13.006z M8.076,13.561v-0.158H7.718
				c-0.171,0-0.256,0.059-0.256,0.189c0,0.129,0.091,0.211,0.249,0.211C7.888,13.803,8.04,13.704,8.076,13.561z"/>
			<path d="M10.839,13.045v1.115h-0.564v-0.957c0-0.208-0.121-0.335-0.311-0.335c-0.207,0-0.338,0.147-0.362,0.357v0.935H9.036
				v-1.768h0.566v0.288c0.125-0.206,0.329-0.312,0.59-0.314C10.583,12.366,10.839,12.632,10.839,13.045z"/>
			<path d="M12.8,12.77l-0.407,0.246c-0.081-0.115-0.203-0.184-0.357-0.184c-0.22,0-0.37,0.18-0.37,0.445
				c0,0.272,0.15,0.449,0.37,0.449c0.161,0,0.285-0.064,0.36-0.199l0.414,0.242c-0.145,0.259-0.43,0.41-0.803,0.41
				c-0.545,0-0.912-0.361-0.912-0.898c0-0.545,0.37-0.908,0.918-0.908C12.363,12.373,12.646,12.517,12.8,12.77z"/>
			<path d="M13.668,11.885c0,0.176-0.125,0.301-0.298,0.301c-0.175,0-0.299-0.125-0.299-0.301c0-0.175,0.124-0.299,0.299-0.299
				C13.543,11.586,13.668,11.71,13.668,11.885z M13.084,14.16v-1.768h0.563v1.768H13.084z"/>
			<path d="M15.668,13.006v1.154h-0.555v-0.203c-0.114,0.15-0.302,0.229-0.541,0.229c-0.377,0-0.606-0.229-0.606-0.554
				c0-0.335,0.239-0.532,0.679-0.534h0.466v-0.026c0-0.174-0.114-0.278-0.344-0.278c-0.147,0-0.342,0.053-0.528,0.146l-0.161-0.373
				c0.275-0.128,0.524-0.2,0.819-0.2C15.382,12.366,15.665,12.605,15.668,13.006z M15.11,13.561v-0.158h-0.357
				c-0.171,0-0.256,0.059-0.256,0.189c0,0.129,0.092,0.211,0.25,0.211C14.923,13.803,15.074,13.704,15.11,13.561z"/>
			<path d="M16.638,12.691c0.121-0.207,0.322-0.322,0.574-0.325v0.511c-0.328-0.029-0.544,0.125-0.574,0.375v0.908H16.07v-1.768
				h0.567V12.691z"/>
		</g>
	</g>
	<path d="M19.658,14.16l-0.003-1.492l-0.551,1.262h-0.381l-0.551-1.262v1.492h-0.521v-2.299h0.64l0.623,1.367l0.623-1.367h0.636
		v2.299H19.658z"/>
	<path d="M22.297,13.429h-1.242c0.055,0.21,0.206,0.327,0.416,0.327c0.154,0,0.306-0.063,0.423-0.18l0.299,0.292
		c-0.181,0.196-0.446,0.312-0.771,0.312c-0.577,0-0.938-0.361-0.938-0.898c0-0.548,0.374-0.908,0.922-0.908
		C22.028,12.373,22.337,12.783,22.297,13.429z M21.753,13.123c0-0.216-0.138-0.357-0.341-0.357c-0.197,0-0.331,0.145-0.367,0.357
		H21.753z"/>
	<polygon points="22.443,10.611 22.443,10.611 21.104,9.783 19.981,11.578 20.311,11.578 20.311,12.135 21.284,10.617 
		22.405,11.317 22.405,11.317 	"/>
</g>
</svg>
