<?xml version="1.0" encoding="utf-8"?>
<!-- Generator: Adobe Illustrator 16.0.0, SVG Export Plug-In . SVG Version: 6.00 Build 0)  -->
<!DOCTYPE svg PUBLIC "-//W3C//DTD SVG 1.1//EN" "http://www.w3.org/Graphics/SVG/1.1/DTD/svg11.dtd">
<svg version="1.1" id="Capa_1" xmlns="http://www.w3.org/2000/svg" xmlns:xlink="http://www.w3.org/1999/xlink" x="0px" y="0px"
	 width="24px" height="24px" viewBox="0 0 24 24" enable-background="new 0 0 24 24" xml:space="preserve">
<path fill="none" d="M0,0h24v24H0V0z"/>
<g>
	<g>
		<path d="M16.699,14.551c0,1.875-1.306,3.478-3.729,3.877v2.173l-2.086-0.428v-1.577c-1.414-0.063-2.781-0.463-3.583-0.906
			l0.63-2.465c0.886,0.483,2.13,0.929,3.501,0.929c1.222,0,2.044-0.484,2.044-1.305c0-0.804-0.674-1.31-2.257-1.835
			c-2.254-0.762-3.79-1.813-3.79-3.86c0-1.874,1.303-3.328,3.558-3.749V3.4l2.067,0.501v1.354c1.392,0.041,2.34,0.354,3.076,0.695
			L15.498,8.33c-0.528-0.252-1.521-0.738-3.036-0.738c-1.367,0-1.812,0.613-1.812,1.205c0,0.672,0.738,1.139,2.552,1.789
			C15.708,11.473,16.699,12.631,16.699,14.551z"/>
	</g>
</g>
</svg>
