<?xml version="1.0" encoding="utf-8"?>
<!-- Generator: Adobe Illustrator 16.0.0, SVG Export Plug-In . SVG Version: 6.00 Build 0)  -->
<!DOCTYPE svg PUBLIC "-//W3C//DTD SVG 1.1//EN" "http://www.w3.org/Graphics/SVG/1.1/DTD/svg11.dtd">
<svg version="1.1" id="Capa_1" xmlns="http://www.w3.org/2000/svg" xmlns:xlink="http://www.w3.org/1999/xlink" x="0px" y="0px"
	 width="24px" height="24px" viewBox="0 0 24 24" enable-background="new 0 0 24 24" xml:space="preserve">
<path fill="none" d="M0,0h24v24H0V0z"/>
<path d="M21.685,19.828l-5.655-5.655c0.861-1.234,1.366-2.736,1.366-4.356c0-4.211-3.414-7.625-7.625-7.625S2.145,5.605,2.145,9.817
	s3.414,7.625,7.625,7.625c1.619,0,3.121-0.505,4.356-1.366v-0.001l5.655,5.656c0.104,0.104,0.272,0.107,0.379,0l1.524-1.524
	C21.79,20.103,21.784,19.929,21.685,19.828z M9.77,15.648c-3.221,0-5.832-2.611-5.832-5.832c0-3.221,2.611-5.832,5.832-5.832
	c3.22,0,5.832,2.611,5.832,5.832C15.602,13.037,12.99,15.648,9.77,15.648z"/>
</svg>
