<?xml version="1.0" encoding="utf-8"?>
<!-- Generator: Adobe Illustrator 16.0.0, SVG Export Plug-In . SVG Version: 6.00 Build 0)  -->
<!DOCTYPE svg PUBLIC "-//W3C//DTD SVG 1.1//EN" "http://www.w3.org/Graphics/SVG/1.1/DTD/svg11.dtd">
<svg version="1.1" id="Capa_1" xmlns="http://www.w3.org/2000/svg" xmlns:xlink="http://www.w3.org/1999/xlink" x="0px" y="0px"
	 width="24px" height="24px" viewBox="0 0 24 24" enable-background="new 0 0 24 24" xml:space="preserve">
<path fill="none" d="M0,0h24v24H0V0z"/>
<path d="M11.945,10.298L11.945,10.298L11.945,10.298l-7.008,6.726c-0.171,0.168-0.455,0.165-0.634-0.01l-1.232-1.201
	c-0.175-0.174-0.179-0.455-0.008-0.625l8.556-8.213c0.088-0.087,0.21-0.128,0.326-0.121c0.123-0.001,0.237,0.039,0.325,0.121
	l8.556,8.213c0.173,0.17,0.167,0.451-0.009,0.625l-1.231,1.201c-0.178,0.175-0.462,0.178-0.637,0.01L11.945,10.298z"/>
</svg>
