<?xml version="1.0" encoding="utf-8"?>
<!-- Generator: Adobe Illustrator 16.0.0, SVG Export Plug-In . SVG Version: 6.00 Build 0)  -->
<!DOCTYPE svg PUBLIC "-//W3C//DTD SVG 1.1//EN" "http://www.w3.org/Graphics/SVG/1.1/DTD/svg11.dtd">
<svg version="1.1" id="Capa_1" xmlns="http://www.w3.org/2000/svg" xmlns:xlink="http://www.w3.org/1999/xlink" x="0px" y="0px"
	 width="24px" height="24px" viewBox="0 0 24 24" enable-background="new 0 0 24 24" xml:space="preserve">
<path fill="none" d="M0,0h24v24H0V0z"/>
<g id="Shape_1">
	<g>
		<path d="M5.28,13.889c-0.101,0-0.182,0.081-0.182,0.178c0,0.098,0.081,0.18,0.182,0.18c0.097,0,0.178-0.082,0.178-0.18
			C5.458,13.97,5.377,13.889,5.28,13.889z M5.28,14.394c-0.044,0-0.078,0.036-0.078,0.078c0,0.046,0.033,0.077,0.078,0.077
			c0.041,0,0.075-0.029,0.075-0.077C5.355,14.431,5.321,14.394,5.28,14.394z M5.482,14.629v0.615
			c0.181-0.027,0.346-0.101,0.49-0.201l-0.436-0.436C5.517,14.615,5.5,14.623,5.482,14.629z M5.819,14.321l0.434,0.436
			c0.104-0.142,0.173-0.31,0.203-0.489H5.842C5.834,14.288,5.829,14.305,5.819,14.321z M5.818,13.809
			c0.011,0.019,0.016,0.038,0.024,0.058h0.615c-0.03-0.181-0.1-0.348-0.202-0.493L5.818,13.809z M5.024,13.526
			c0.017-0.008,0.036-0.014,0.053-0.021v-0.62c-0.179,0.03-0.346,0.101-0.49,0.207L5.024,13.526z M5.28,12.11
			c-1.083,0-1.961,0.875-1.961,1.957c0,1.083,0.878,1.961,1.961,1.961c1.08,0,1.958-0.878,1.958-1.961
			C7.238,12.985,6.361,12.11,5.28,12.11z M5.28,15.466c-0.776,0-1.402-0.626-1.402-1.399s0.626-1.4,1.402-1.4
			c0.771,0,1.396,0.627,1.396,1.4S6.051,15.466,5.28,15.466z M5.28,13.737c0.041,0,0.075-0.034,0.075-0.079
			c0-0.04-0.033-0.072-0.075-0.072c-0.044,0-0.078,0.029-0.078,0.072C5.203,13.703,5.236,13.737,5.28,13.737z M5.972,13.093
			c-0.144-0.105-0.309-0.176-0.49-0.207v0.619c0.019,0.008,0.035,0.014,0.054,0.022L5.972,13.093z M4.739,13.809l-0.438-0.436
			c-0.101,0.146-0.171,0.313-0.203,0.493h0.617C4.722,13.847,4.73,13.827,4.739,13.809z M4.587,15.043
			c0.144,0.101,0.311,0.174,0.49,0.201v-0.615c-0.017-0.006-0.036-0.014-0.053-0.021L4.587,15.043z M4.715,14.268H4.099
			c0.032,0.18,0.102,0.348,0.203,0.489l0.438-0.436C4.73,14.305,4.722,14.288,4.715,14.268z M4.95,14.066
			c0-0.041-0.036-0.078-0.078-0.078c-0.042,0-0.075,0.036-0.075,0.078s0.033,0.077,0.075,0.077
			C4.914,14.144,4.95,14.108,4.95,14.066z M5.608,14.066c0,0.042,0.034,0.077,0.076,0.077c0.042,0,0.076-0.035,0.076-0.077
			s-0.032-0.078-0.076-0.078C5.644,13.99,5.608,14.025,5.608,14.066z M20.463,13.889c-0.1,0-0.178,0.081-0.178,0.178
			c0,0.098,0.078,0.18,0.178,0.18c0.098,0,0.178-0.082,0.178-0.18C20.641,13.97,20.561,13.889,20.463,13.889z M20.211,13.526
			c0.014-0.008,0.033-0.014,0.053-0.021v-0.62c-0.182,0.03-0.35,0.101-0.492,0.207L20.211,13.526z M20.463,14.394
			c-0.043,0-0.078,0.036-0.078,0.078c0,0.046,0.033,0.077,0.078,0.077c0.041,0,0.078-0.029,0.078-0.077
			C20.541,14.431,20.504,14.394,20.463,14.394z M20.664,14.629v0.615c0.182-0.027,0.348-0.101,0.49-0.201l-0.438-0.436
			C20.701,14.615,20.684,14.623,20.664,14.629z M21.025,14.268c-0.006,0.021-0.014,0.037-0.02,0.054l0.434,0.436
			c0.1-0.142,0.17-0.31,0.203-0.489H21.025L21.025,14.268z M23.869,11.789c-0.262-0.411-0.943-0.55-1.463-0.719
			c-3.621-0.875-4.824-0.589-5.43-0.675c-0.121-0.033-0.23-0.139-0.33-0.201c-0.217-0.137-0.445-0.255-0.66-0.389
			c-0.357-0.216-2.002-1.115-2.443-1.278c-0.977-0.356-2.519-0.643-6.238-0.345c-0.148-0.041-0.241-0.162-0.399-0.2
			C6.747,7.945,6.601,8.028,6.488,8.054C6.492,8.177,6.48,8.273,6.46,8.371C5.733,8.674,4.997,8.912,4.275,9.216
			C3.974,9.345,3.663,9.471,3.359,9.605C3.167,9.69,2.983,9.808,2.769,9.879c-0.235,0.076-0.49,0.04-0.747,0.1
			c-0.469,0.108-0.976,0.122-1.495,0.131c-0.061,0.102-0.163,0.202-0.187,0.328c0.087,0.028,0.119,0.09,0.114,0.217
			c-0.158,0.234-0.117,0.569-0.115,0.95c-0.337,0.171-0.39,0.801-0.303,1.304c-0.008,0.045-0.019,0.086-0.028,0.132
			c0.019,0.141,0.066,0.291,0.072,0.442c0.127,0.084,0.271,0.222,0.358,0.346c0.044,0.063,0.068,0.163,0.147,0.189
			c0.422,0.31,2.568,0.374,2.568,0.374l0.113,0.006c-0.017-0.107-0.026-0.217-0.026-0.329c0-1.126,0.912-2.037,2.039-2.037
			c1.123,0,2.037,0.912,2.037,2.037c0,0.188-0.027,0.498-0.075,0.669l11.29-0.019c-0.072-0.206-0.105-0.422-0.105-0.65
			c0-1.126,0.91-2.037,2.037-2.037c1.129,0,2.037,0.912,2.037,2.037c0,0.196-0.027,0.388-0.082,0.567h0.115
			c0,0,0.891-0.046,1.109-0.144c0.217-0.101,0.303-0.386,0.303-0.386l-0.061-0.609C23.885,13.494,24.154,12.22,23.869,11.789z
			 M5.842,10.307C5.166,9.859,5.523,9.336,5.507,9.339C5.493,9.347,5.485,9.355,5.483,9.361c0.014-0.018,0.022-0.022,0.024-0.022
			c0.173-0.156,1.166-0.852,4.687-0.855c0.111,0.619,0.223,1.43,0.33,2.047C9.107,10.488,6.318,10.512,5.842,10.307z M14.92,10.54
			c-0.307,0-3.388-0.003-3.388-0.003s-0.499-1.31-0.675-2.038c0.019,0.003,0.632,0.028,0.632,0.028s1.21,0.139,1.97,0.389
			c0.594,0.194,1.771,0.987,1.791,1.033C14.896,9.967,14.813,10.248,14.92,10.54z M20.463,12.11c-1.082,0-1.957,0.875-1.957,1.957
			c0,1.083,0.875,1.961,1.957,1.961s1.957-0.878,1.957-1.961C22.42,12.985,21.545,12.11,20.463,12.11z M20.463,15.466
			c-0.773,0-1.4-0.626-1.4-1.399s0.627-1.4,1.4-1.4s1.398,0.627,1.398,1.4S21.236,15.466,20.463,15.466z M19.922,13.809
			l-0.438-0.436c-0.098,0.146-0.172,0.313-0.199,0.493H19.9C19.904,13.847,19.914,13.827,19.922,13.809z M20.135,14.066
			c0-0.041-0.033-0.078-0.08-0.078c-0.039,0-0.074,0.036-0.074,0.078s0.033,0.077,0.074,0.077
			C20.102,14.144,20.135,14.108,20.135,14.066z M20.463,13.737c0.041,0,0.078-0.034,0.078-0.079c0-0.04-0.035-0.072-0.078-0.072
			s-0.078,0.029-0.078,0.072C20.385,13.703,20.42,13.737,20.463,13.737z M21.154,13.093c-0.143-0.105-0.309-0.176-0.49-0.207v0.619
			c0.02,0.008,0.035,0.014,0.053,0.022L21.154,13.093z M20.793,14.066c0,0.042,0.033,0.077,0.076,0.077
			c0.041,0,0.078-0.035,0.078-0.077s-0.037-0.078-0.078-0.078C20.826,13.988,20.793,14.025,20.793,14.066z M19.771,15.043
			c0.143,0.101,0.311,0.174,0.492,0.201v-0.615c-0.021-0.006-0.039-0.014-0.053-0.021L19.771,15.043z M19.898,14.268h-0.617
			c0.031,0.18,0.104,0.348,0.205,0.489l0.436-0.436C19.914,14.305,19.904,14.288,19.898,14.268z M21.025,13.866h0.619
			c-0.033-0.181-0.102-0.348-0.203-0.493l-0.436,0.436C21.012,13.827,21.02,13.847,21.025,13.866z"/>
	</g>
</g>
</svg>
