<?xml version="1.0" encoding="utf-8"?>
<!-- Generator: Adobe Illustrator 16.0.0, SVG Export Plug-In . SVG Version: 6.00 Build 0)  -->
<!DOCTYPE svg PUBLIC "-//W3C//DTD SVG 1.1//EN" "http://www.w3.org/Graphics/SVG/1.1/DTD/svg11.dtd">
<svg version="1.1" id="Capa_1" xmlns="http://www.w3.org/2000/svg" xmlns:xlink="http://www.w3.org/1999/xlink" x="0px" y="0px"
	 width="24px" height="24px" viewBox="0 0 24 24" enable-background="new 0 0 24 24" xml:space="preserve">
<path fill="none" d="M0,0h24v24H0V0z"/>
<path d="M18.703,5.681H5.275c-1.468,0-2.37,1.38-2.37,2.369v8.052c0,1.222,0.996,2.217,2.219,2.217h13.73
	c1.224,0,2.218-0.995,2.218-2.217V7.99C21.072,6.781,19.943,5.681,18.703,5.681z M5.275,6.472h13.428c0.797,0,1.58,0.752,1.58,1.519
	v0.456H3.695V8.05C3.695,7.515,4.253,6.472,5.275,6.472z M18.854,17.529H5.124c-0.789,0-1.429-0.64-1.429-1.428V10.42h16.588v5.681
	C20.283,16.89,19.642,17.529,18.854,17.529z"/>
</svg>
