<?xml version="1.0" encoding="utf-8"?>
<!-- Generator: Adobe Illustrator 16.0.0, SVG Export Plug-In . SVG Version: 6.00 Build 0)  -->
<!DOCTYPE svg PUBLIC "-//W3C//DTD SVG 1.1//EN" "http://www.w3.org/Graphics/SVG/1.1/DTD/svg11.dtd">
<svg version="1.1" id="Capa_1" xmlns="http://www.w3.org/2000/svg" xmlns:xlink="http://www.w3.org/1999/xlink" x="0px" y="0px"
	 width="24px" height="24px" viewBox="0 0 24 24" enable-background="new 0 0 24 24" xml:space="preserve">
<path fill="none" d="M0,0h24v24H0V0z"/>
<g>
	<path fill-rule="evenodd" clip-rule="evenodd" d="M11.793,6.87c0.149,0.044,0.319,0.092,0.485,0.145
		c0.687,0.22,1.37,0.441,2.057,0.66c0.229,0.073,0.458,0.073,0.685-0.015c0.395-0.154,0.798-0.288,1.179-0.469
		c0.197-0.092,0.369-0.101,0.565-0.051c0.753,0.188,1.304,0.657,1.752,1.263c0.458,0.622,0.761,1.319,0.959,2.063
		c0.021,0.082,0.019,0.195-0.023,0.259c-0.357,0.561-0.709,1.125-1.097,1.664c-0.186,0.253-0.424,0.475-0.666,0.679
		c-0.317,0.267-0.675,0.317-1.03,0.054c-0.898-0.673-1.811-1.33-2.689-2.027c-0.688-0.545-1.338-1.135-1.992-1.721
		c-0.232-0.208-0.452-0.26-0.751-0.162c-0.393,0.133-0.796,0.255-1.205,0.319C9.352,9.635,8.762,9.422,8.282,8.944
		c-0.271-0.27-0.255-0.532,0.08-0.708c0.649-0.339,1.317-0.646,1.99-0.936c0.361-0.157,0.749-0.25,1.126-0.368
		C11.571,6.903,11.671,6.893,11.793,6.87z"/>
	<path fill-rule="evenodd" clip-rule="evenodd" d="M14.899,16.676c-0.402,0.841-0.957,1.034-1.737,0.598
		c-0.144,0.164-0.269,0.347-0.431,0.484c-0.419,0.366-0.89,0.401-1.378,0.144c-0.167-0.089-0.326-0.2-0.473-0.322
		c-0.153-0.125-0.161-0.291-0.049-0.43c0.107-0.134,0.275-0.151,0.438-0.048c0.16,0.102,0.314,0.221,0.486,0.295
		c0.283,0.123,0.622-0.025,0.749-0.307c0.084-0.186,0.021-0.338-0.118-0.477c-0.594-0.598-1.185-1.197-1.776-1.796
		c-0.045-0.047-0.093-0.089-0.129-0.142c-0.1-0.143-0.082-0.281,0.039-0.402c0.113-0.113,0.305-0.111,0.441,0.017
		c0.305,0.284,0.604,0.575,0.904,0.865c0.536,0.516,1.07,1.031,1.607,1.544c0.323,0.308,0.714,0.19,0.83-0.239
		c0.042-0.152-0.018-0.253-0.126-0.353c-0.932-0.868-1.862-1.738-2.792-2.608c-0.042-0.038-0.085-0.074-0.122-0.118
		c-0.119-0.137-0.129-0.281-0.012-0.421c0.114-0.138,0.285-0.153,0.433-0.024c0.279,0.24,0.548,0.49,0.821,0.736
		c0.818,0.743,1.635,1.486,2.453,2.228c0.204,0.186,0.452,0.234,0.64,0.131c0.188-0.102,0.421-0.534,0.372-0.724
		c-0.02-0.074-0.086-0.145-0.146-0.196c-1.157-0.989-2.315-1.974-3.474-2.962c-0.08-0.068-0.163-0.135-0.241-0.208
		c-0.147-0.139-0.165-0.319-0.05-0.452c0.112-0.129,0.303-0.143,0.457-0.015c0.392,0.325,0.778,0.657,1.166,0.988
		c0.873,0.743,1.746,1.487,2.619,2.23c0.204,0.173,0.497,0.173,0.696,0.001c0.157-0.134,0.169-0.367,0.033-0.599
		c-0.115-0.195-0.092-0.361,0.066-0.465c0.157-0.103,0.323-0.058,0.457,0.122c0.463,0.629,0.09,1.54-0.695,1.662
		c-0.209,0.034-0.285,0.111-0.345,0.31c-0.136,0.447-0.371,0.842-0.874,0.943C15.414,16.714,15.169,16.676,14.899,16.676z"/>
	<path fill-rule="evenodd" clip-rule="evenodd" d="M8.914,14.684c0.315-0.043,0.597,0,0.781,0.272
		c0.177,0.261,0.157,0.531-0.007,0.828c0.108,0,0.188-0.007,0.269,0.002c0.485,0.051,0.765,0.588,0.521,1.018
		c-0.1,0.178-0.222,0.347-0.352,0.505c-0.229,0.279-0.617,0.327-0.916,0.122c-0.122-0.085-0.231-0.186-0.344-0.284
		c-0.166-0.146-0.338-0.249-0.568-0.297c-0.178-0.038-0.338-0.192-0.485-0.318c-0.189-0.16-0.354-0.323-0.626-0.363
		c-0.153-0.023-0.294-0.18-0.42-0.299c-0.096-0.091-0.162-0.213-0.237-0.323c-0.087-0.129-0.188-0.216-0.355-0.235
		c-0.279-0.033-0.47-0.202-0.548-0.467c-0.082-0.277-0.02-0.533,0.207-0.732c0.174-0.156,0.349-0.311,0.522-0.465
		c0.521-0.465,1.096-0.29,1.265,0.418c0.293-0.342,0.63-0.504,1.035-0.239C8.957,14.021,9,14.323,8.914,14.684z"/>
	<path fill-rule="evenodd" clip-rule="evenodd" d="M8.228,7.525C7.975,7.712,7.749,7.89,7.511,8.05
		C7.468,8.077,7.38,8.056,7.319,8.037C6.991,7.93,6.663,7.819,6.337,7.708C6.187,7.655,6.05,7.665,5.917,7.758
		c-0.957,0.666-1.656,1.53-2.026,2.643c-0.101,0.306-0.05,0.565,0.182,0.813c0.583,0.624,1.219,1.18,1.933,1.648
		c0.058,0.037,0.116,0.076,0.205,0.137C6,13.2,5.799,13.391,5.57,13.609c-0.33-0.24-0.679-0.457-0.982-0.727
		c-0.416-0.37-0.791-0.787-1.194-1.172c-0.404-0.388-0.453-0.86-0.345-1.37C3.23,9.496,3.679,8.79,4.227,8.14
		C4.598,7.7,5.015,7.31,5.518,7.019c0.251-0.145,0.505-0.23,0.806-0.16C6.979,7.008,7.599,7.251,8.228,7.525z"/>
	<path fill-rule="evenodd" clip-rule="evenodd" d="M20.053,10.163c-0.276-1.822-1.19-3.072-2.979-3.631
		c0.338-0.201,0.664-0.4,0.999-0.591c0.038-0.021,0.11-0.003,0.16,0.018c1.488,0.557,2.429,1.6,2.78,3.159
		c0.031,0.137-0.007,0.236-0.122,0.33C20.612,9.672,20.344,9.913,20.053,10.163z"/>
</g>
</svg>
