<?xml version="1.0" encoding="utf-8"?>
<!-- Generator: Adobe Illustrator 16.0.0, SVG Export Plug-In . SVG Version: 6.00 Build 0)  -->
<!DOCTYPE svg PUBLIC "-//W3C//DTD SVG 1.1//EN" "http://www.w3.org/Graphics/SVG/1.1/DTD/svg11.dtd">
<svg version="1.1" id="Capa_1" xmlns="http://www.w3.org/2000/svg" xmlns:xlink="http://www.w3.org/1999/xlink" x="0px" y="0px"
	 width="24px" height="24px" viewBox="0 0 24 24" enable-background="new 0 0 24 24" xml:space="preserve">
<path fill="none" d="M0,0h24v24H0V0z"/>
<path d="M20.883,12.197L12.454,3.48c-0.12-0.121-0.275-0.182-0.431-0.182c-0.157,0-0.311,0.061-0.432,0.182l-8.428,8.717
	c-0.236,0.247-0.151,0.448,0.187,0.448h2.481l0.001,8.056c1.813,0,4.64,0,4.64,0v-4.958h3.1l-0.012,4.958c0,0,3.796,0,4.669,0
	l-0.003-8.056h2.468C21.034,12.646,21.12,12.444,20.883,12.197z"/>
</svg>
