<?xml version="1.0" encoding="utf-8"?>
<!-- Generator: Adobe Illustrator 16.0.0, SVG Export Plug-In . SVG Version: 6.00 Build 0)  -->
<!DOCTYPE svg PUBLIC "-//W3C//DTD SVG 1.1//EN" "http://www.w3.org/Graphics/SVG/1.1/DTD/svg11.dtd">
<svg version="1.1" id="Capa_1" xmlns="http://www.w3.org/2000/svg" xmlns:xlink="http://www.w3.org/1999/xlink" x="0px" y="0px"
	 width="24px" height="24px" viewBox="0 0 24 24" enable-background="new 0 0 24 24" xml:space="preserve">
<path fill="none" d="M0,0h24v24H0V0z"/>
<path d="M17.521,3H6.479C4.561,3,3,4.561,3,6.479v3.674v7.369C3,19.44,4.561,21,6.479,21h11.043C19.439,21,21,19.44,21,17.522
	v-7.369V6.479C21,4.561,19.439,3,17.521,3z M18.52,5.075l0.396-0.002v0.396v2.655l-3.039,0.01l-0.012-3.051L18.52,5.075z
	 M9.43,10.153c0.576-0.799,1.512-1.321,2.57-1.321c1.057,0,1.992,0.522,2.568,1.321c0.375,0.52,0.6,1.157,0.6,1.847
	c0,1.748-1.422,3.168-3.168,3.168c-1.748,0-3.17-1.42-3.17-3.168C8.832,11.311,9.055,10.673,9.43,10.153z M19.246,17.521
	c0,0.952-0.773,1.726-1.725,1.726H6.479c-0.951,0-1.725-0.773-1.725-1.726v-7.368h2.686C7.207,10.725,7.078,11.348,7.078,12
	c0,2.714,2.207,4.923,4.922,4.923s4.922-2.209,4.922-4.923c0-0.652-0.131-1.275-0.363-1.847h2.688V17.521z"/>
</svg>
