<?xml version="1.0" encoding="utf-8"?>
<!-- Generator: Adobe Illustrator 16.0.0, SVG Export Plug-In . SVG Version: 6.00 Build 0)  -->
<!DOCTYPE svg PUBLIC "-//W3C//DTD SVG 1.1//EN" "http://www.w3.org/Graphics/SVG/1.1/DTD/svg11.dtd">
<svg version="1.1" id="Capa_1" xmlns="http://www.w3.org/2000/svg" xmlns:xlink="http://www.w3.org/1999/xlink" x="0px" y="0px"
	 width="24px" height="24px" viewBox="0 0 24 24" enable-background="new 0 0 24 24" xml:space="preserve">
<path fill="none" d="M0,0h24v24H0V0z"/>
<path d="M20.294,16.833l-5.243-5.253c0.254-0.67,0.4-1.399,0.4-2.162c0-3.326-2.637-5.968-5.962-5.968
	c-3.325,0-5.966,2.642-5.966,5.968c0,3.325,2.644,5.967,5.968,5.967c0.765,0,1.494-0.125,2.162-0.381l1.249,1.268h1.655v1.69h1.798
	v1.686l0.575,0.623c0.173,0.168,0.32,0.281,0.575,0.281h2.213c0.514,0,0.805-0.394,0.805-0.904V17.43
	C20.523,17.175,20.463,17.002,20.294,16.833z M8.214,10.27c-1.193,0-2.131-0.938-2.131-2.131s0.938-2.131,2.131-2.131
	c1.193,0,2.131,0.938,2.131,2.131S9.407,10.27,8.214,10.27z"/>
</svg>
