<?xml version="1.0" encoding="utf-8"?>
<!-- Generator: Adobe Illustrator 16.0.0, SVG Export Plug-In . SVG Version: 6.00 Build 0)  -->
<!DOCTYPE svg PUBLIC "-//W3C//DTD SVG 1.1//EN" "http://www.w3.org/Graphics/SVG/1.1/DTD/svg11.dtd">
<svg version="1.1" id="Capa_1" xmlns="http://www.w3.org/2000/svg" xmlns:xlink="http://www.w3.org/1999/xlink" x="0px" y="0px"
	 width="24px" height="24px" viewBox="0 0 24 24" enable-background="new 0 0 24 24" xml:space="preserve">
<path fill="none" d="M0,0h24v24H0V0z"/>
<g id="g1941">
	<path id="path1943" d="M8.451,3.841c-0.758,0.406-3.112,2.874-0.482,9.695c2.77,7.186,6.425,7.471,7.218,7.134l-1.889-4.724
		c-0.658,0.265-1.077-0.399-1.82-1.821c-0.49-0.94-1.005-2.141-1.357-3.396C9.872,9.845,9.7,8.957,10.39,8.682L8.451,3.841z"/>
	<path id="path1945" d="M16.888,19.998c0.307-0.123,0.427-0.457,0.313-0.735l0.002-0.002c0,0-1.472-3.683-1.474-3.685
		c-0.118-0.292-0.447-0.427-0.732-0.313l-1.339,0.534l1.893,4.735l1.335-0.533L16.888,19.998z"/>
	<path id="path1947" d="M12.093,8c0.306-0.122,0.424-0.459,0.313-0.737l0.002-0.002c0,0-1.515-3.787-1.517-3.79
		c-0.118-0.293-0.445-0.429-0.733-0.313L8.821,3.694l1.935,4.841c0,0,1.334-0.532,1.335-0.534L12.093,8z"/>
</g>
</svg>
