<?xml version="1.0" encoding="utf-8"?>
<!-- Generator: Adobe Illustrator 16.0.0, SVG Export Plug-In . SVG Version: 6.00 Build 0)  -->
<!DOCTYPE svg PUBLIC "-//W3C//DTD SVG 1.1//EN" "http://www.w3.org/Graphics/SVG/1.1/DTD/svg11.dtd">
<svg version="1.1" id="Capa_1" xmlns="http://www.w3.org/2000/svg" xmlns:xlink="http://www.w3.org/1999/xlink" x="0px" y="0px"
	 width="24px" height="24px" viewBox="0 0 24 24" enable-background="new 0 0 24 24" xml:space="preserve">
<path fill="none" d="M0,0h24v24H0V0z"/>
<path d="M20.364,8.033L10.142,18.257c-0.208,0.209-0.547,0.209-0.754,0l-1.512-1.527c-0.208-0.207-0.549-0.55-0.756-0.762
	l-3.515-3.696c-0.104-0.104-0.158-0.25-0.158-0.388c0-0.137,0.054-0.27,0.158-0.373l1.541-1.39c0.103-0.107,0.242-0.157,0.381-0.157
	c0.135,0,0.27,0.053,0.373,0.157l3.487,3.559c0.208,0.212,0.547,0.212,0.756,0l7.957-7.938c0.21-0.209,0.547-0.209,0.755,0
	l1.512,1.527C20.574,7.479,20.574,7.823,20.364,8.033z"/>
</svg>
