<?xml version="1.0" encoding="utf-8"?>
<!-- Generator: Adobe Illustrator 16.0.0, SVG Export Plug-In . SVG Version: 6.00 Build 0)  -->
<!DOCTYPE svg PUBLIC "-//W3C//DTD SVG 1.1//EN" "http://www.w3.org/Graphics/SVG/1.1/DTD/svg11.dtd">
<svg version="1.1" id="Capa_1" xmlns="http://www.w3.org/2000/svg" xmlns:xlink="http://www.w3.org/1999/xlink" x="0px" y="0px"
	 width="24px" height="24px" viewBox="0 0 24 24" enable-background="new 0 0 24 24" xml:space="preserve">
<path fill="none" d="M0,0h24v24H0V0z"/>
<g>
	<circle cx="15.536" cy="8.478" r="3.596"/>
	<path d="M12.465,9.228c-0.188,0-0.524,0.388-0.524,0.599c0,4.221-3.423,7.642-7.643,7.642c-0.386-0.004-0.772-0.035-1.155-0.097
		c4.706,3.162,11.084,1.911,14.244-2.795c1.139-1.692,1.746-3.686,1.746-5.725C19.133,8.192,14.922,9.228,12.465,9.228z"/>
	<path d="M12.465,9.228C9.454,9.229,6.593,7.904,4.647,5.605C4.333,6.143,4.166,6.752,4.163,7.374c0,1.976,1.601,3.577,3.577,3.577
		c1.911,0,5.303,0.02,5.528-1.764C13.001,9.207,12.735,9.228,12.465,9.228z"/>
	<path d="M5.868,10.313c-0.596-0.003-1.18-0.157-1.7-0.447c0,0.019-0.005,0.036-0.005,0.053c0,1.977,1.601,3.579,3.577,3.579
		c1.978,0,4.743-1.433,4.743-3.41C12.482,8.732,7.824,10.313,5.868,10.313z"/>
	<path d="M8.098,12.971c-0.806,0.521-1.79,0.69-2.724,0.47c0.442,1.519,1.833,2.564,3.416,2.567
		c2.212-0.235,3.962-1.982,4.198-4.195C12.988,10.109,9.088,12.334,8.098,12.971z"/>
	<path d="M16.983,6.122c-1.189,0-1.47,1.493,0.069,1.493c1.53-0.004,2.89-0.985,3.375-2.438C19.386,5.795,18.195,6.122,16.983,6.122
		z"/>
	<path d="M18.079,7.161c-0.906,0.002-1.805-0.18-2.639-0.533c-2.437-1.029-3.916,3.005-0.171,3.005c2.314,0,4.468-1.18,5.711-3.131
		C20.076,6.936,19.084,7.16,18.079,7.161z"/>
</g>
</svg>
